<?xml version="1.0" encoding="utf-8"?>
<!-- Generator: Adobe Illustrator 22.0.1, SVG Export Plug-In . SVG Version: 6.00 Build 0)  -->
<svg version="1.1" id="Layer_1" xmlns="http://www.w3.org/2000/svg" xmlns:xlink="http://www.w3.org/1999/xlink" x="0px" y="0px"
	 viewBox="0 0 1276 448" style="enable-background:new 0 0 1276 448;" xml:space="preserve">
<style type="text/css">
	.st0{fill:#EF403C;}
	.st1{fill:#0079C1;}
	.st2{fill:#FFFFFF;}
	.st3{fill:none;}
	.st4{fill:#A5A4A4;}
	.st5{fill:#2C282C;}
</style>
<rect x="72" y="62.658" class="st0" width="307.98" height="78.342"/>
<polygon class="st1" points="269.652,47.784 229.189,7.321 188.727,47.784 "/>
<g>
	<g>
		<path class="st2" d="M83.075,81.204h8.177l16.137,26.396V81.204h7.659v39.323h-7.659L90.811,93.104v27.423h-7.735V81.204z"/>
		<path class="st2" d="M145.601,113.793c-0.651,1.217-1.251,2.15-1.799,2.802c-0.857,1.011-1.808,1.842-2.853,2.493
			c-1.046,0.651-2.125,1.131-3.238,1.439c-1.114,0.309-2.279,0.462-3.496,0.462c-2.364,0-4.613-0.604-6.746-1.812
			c-2.134-1.208-3.766-2.964-4.896-5.269c-1.131-2.304-1.696-4.879-1.696-7.723c0-4.318,1.221-7.757,3.662-10.319
			c2.442-2.561,5.564-3.842,9.369-3.842c3.718,0,6.699,1.169,8.943,3.508c2.245,2.339,3.367,5.607,3.367,9.805
			c0,0.548-0.025,1.354-0.077,2.416h-17.785c0.085,2.536,0.677,4.42,1.773,5.654c1.096,1.233,2.476,1.851,4.138,1.851
			c1.268,0,2.348-0.33,3.238-0.99c0.891-0.659,1.662-1.632,2.313-2.917L145.601,113.793z M139.818,103.513
			c-0.104-2.142-0.703-3.787-1.8-4.935c-1.097-1.147-2.441-1.722-4.035-1.722c-1.524,0-2.813,0.562-3.867,1.683
			c-1.054,1.123-1.649,2.78-1.787,4.974H139.818z"/>
		<path class="st2" d="M147.845,92.513h6.318l4.785,15.729l4.729-15.729h5.27l4.78,15.909l4.729-15.909h6.323l-8.379,28.015h-4.961
			l-5.114-16.886l-5.141,16.886h-4.96L147.845,92.513z"/>
		<path class="st2" d="M204.751,81.204h16.757c3.975,0,6.931,0.608,8.867,1.825c2.775,1.748,4.163,4.267,4.163,7.556
			c0,2.468-0.831,4.549-2.492,6.246c-1.114,1.131-2.742,2.073-4.884,2.827c1.833,0.549,3.229,1.182,4.189,1.902
			c1.337,0.994,2.373,2.219,3.11,3.675c0.736,1.457,1.104,2.947,1.104,4.472c0,1.782-0.463,3.508-1.388,5.179
			c-0.925,1.671-2.399,3.029-4.421,4.074c-2.021,1.045-4.592,1.568-7.71,1.568h-17.297V81.204z M212.436,87.167v9.458h8.25
			c1.765,0,3.298-0.548,4.601-1.645c0.839-0.702,1.26-1.756,1.26-3.161c0-1.388-0.489-2.51-1.466-3.367s-2.51-1.285-4.601-1.285
			H212.436z M212.436,102.69v11.797h6.193c3.204,0,5.483-0.552,6.837-1.658c1.354-1.105,2.03-2.557,2.03-4.356
			c0-1.662-0.616-3.041-1.851-4.138c-1.233-1.096-3.032-1.645-5.396-1.645H212.436z"/>
		<path class="st2" d="M251.06,92.024c4.163,0,7.432,1.243,9.805,3.727c2.373,2.485,3.56,6.014,3.56,10.589
			c0,4.609-1.199,8.208-3.599,10.794c-2.398,2.587-5.396,3.881-8.995,3.881c-3.444,0-6.438-1.225-8.982-3.675
			c-2.545-2.45-3.816-6.1-3.816-10.949c0-4.592,1.139-8.135,3.418-10.627C244.728,93.271,247.598,92.024,251.06,92.024z
			 M251.778,96.702c-1.61,0-2.878,0.625-3.804,1.876c-1.233,1.662-1.851,4.318-1.851,7.968c0,3.341,0.549,5.723,1.646,7.145
			c1.096,1.422,2.416,2.133,3.958,2.133c1.079,0,2.064-0.347,2.955-1.041c0.892-0.694,1.533-1.684,1.928-2.969
			c0.565-1.799,0.849-3.83,0.849-6.091c0-1.696-0.236-3.277-0.707-4.742c-0.472-1.465-1.152-2.544-2.043-3.238
			C253.817,97.049,252.841,96.702,251.778,96.702z"/>
		<path class="st2" d="M271.872,112.92c1.404,1.062,2.664,1.808,3.778,2.236c1.113,0.429,2.27,0.643,3.47,0.643
			c1.559,0,2.711-0.287,3.456-0.861c0.746-0.574,1.118-1.229,1.118-1.966c0-0.685-0.334-1.319-1.002-1.902s-2.116-1.062-4.344-1.439
			c-3.684-0.651-6.288-1.756-7.813-3.315c-1.524-1.559-2.287-3.418-2.287-5.577c0-2.279,0.993-4.301,2.981-6.065
			c1.987-1.765,4.583-2.647,7.787-2.647c1.834,0,3.568,0.274,5.205,0.822c1.636,0.549,3.405,1.594,5.308,3.136l-4.112,3.444
			c-1.971-1.182-3.329-1.906-4.074-2.171s-1.495-0.398-2.249-0.398c-1.268,0-2.287,0.334-3.059,1.002
			c-0.771,0.668-1.156,1.422-1.156,2.262c0,0.754,0.317,1.422,0.951,2.004c0.634,0.583,2.201,1.14,4.703,1.671
			c3.461,0.719,5.877,1.593,7.248,2.622c1.919,1.405,2.879,3.272,2.879,5.603c0,2.485-0.994,4.601-2.981,6.349
			c-1.988,1.748-4.867,2.621-8.636,2.621c-2.365,0-4.434-0.398-6.207-1.195s-3.525-2.095-5.256-3.894L271.872,112.92z"/>
		<path class="st2" d="M297.543,83.466h7.094v9.047h4.935v5.089h-4.935v14.958c0,0.805,0.296,1.431,0.887,1.876
			c0.591,0.446,1.94,0.694,4.048,0.746v5.783c-1.576,0.034-2.407,0.051-2.493,0.051c-2.21,0-3.962-0.292-5.256-0.874
			c-1.294-0.582-2.33-1.559-3.109-2.93c-0.78-1.371-1.17-2.921-1.17-4.652V97.602h-4.292v-5.089h4.292V83.466z"/>
		<path class="st2" d="M324.448,92.024c4.163,0,7.432,1.243,9.805,3.727c2.373,2.485,3.56,6.014,3.56,10.589
			c0,4.609-1.199,8.208-3.599,10.794c-2.398,2.587-5.396,3.881-8.995,3.881c-3.444,0-6.438-1.225-8.982-3.675
			c-2.545-2.45-3.816-6.1-3.816-10.949c0-4.592,1.139-8.135,3.418-10.627C318.116,93.271,320.986,92.024,324.448,92.024z
			 M325.167,96.702c-1.61,0-2.878,0.625-3.804,1.876c-1.233,1.662-1.851,4.318-1.851,7.968c0,3.341,0.549,5.723,1.646,7.145
			c1.096,1.422,2.416,2.133,3.958,2.133c1.079,0,2.064-0.347,2.955-1.041c0.892-0.694,1.533-1.684,1.928-2.969
			c0.565-1.799,0.849-3.83,0.849-6.091c0-1.696-0.236-3.277-0.707-4.742c-0.472-1.465-1.152-2.544-2.043-3.238
			C327.206,97.049,326.229,96.702,325.167,96.702z"/>
		<path class="st2" d="M350.298,96.342c1.474-1.405,2.99-2.476,4.55-3.213c1.559-0.736,3.28-1.105,5.166-1.105
			c2.124,0,3.649,0.514,4.574,1.542c1.234,1.371,1.851,3.248,1.851,5.629v21.332h-7.042v-19.533c0-1.147-0.223-1.966-0.668-2.455
			c-0.446-0.488-1.08-0.732-1.902-0.732c-0.874,0-1.799,0.244-2.775,0.732c-0.977,0.489-2.228,1.436-3.753,2.84v19.147h-7.094
			V92.513h7.094V96.342z"/>
	</g>
</g>
<polygon class="st3" points="39.977,237.753 79.302,277.079 79.302,198.427 "/>
<g>
	<path class="st2" d="M90.079,156.997h34.976l69.024,112.905V156.997h32.762V325.2h-32.762L123.17,207.898V325.2H90.079V156.997z"/>
	<path class="st2" d="M246.683,156.997h71.679c17.002,0,29.646,2.603,37.928,7.806c11.874,7.476,17.811,18.25,17.811,32.321
		c0,10.554-3.557,19.459-10.664,26.715c-4.766,4.837-11.728,8.869-20.888,12.093c7.841,2.347,13.813,5.057,17.919,8.135
		c5.717,4.251,10.15,9.493,13.303,15.721c3.15,6.23,4.728,12.606,4.728,19.129c0,7.623-1.979,15.006-5.937,22.152
		c-3.958,7.146-10.263,12.955-18.909,17.425c-8.649,4.471-19.643,6.706-32.981,6.706h-73.987V156.997z M279.554,182.503v40.457
		h35.29c7.548,0,14.107-2.345,19.679-7.036c3.59-3.004,5.387-7.512,5.387-13.522c0-5.937-2.089-10.736-6.267-14.401
		c-4.178-3.664-10.737-5.497-19.679-5.497H279.554z M279.554,248.904v50.461h26.495c13.704,0,23.452-2.364,29.243-7.091
		c5.788-4.728,8.685-10.939,8.685-18.635c0-7.108-2.639-13.008-7.915-17.7c-5.277-4.689-12.973-7.036-23.087-7.036H279.554z"/>
</g>
<g>
	<path class="st0" d="M501.407,180.345V74.073h12.145v96.556h23.532v9.716H501.407z"/>
	<path class="st0" d="M550.441,135.331c2.833-3.492,6.882-5.238,12.146-5.238c5.261,0,9.413,2.026,12.45,6.073v-15.941
		c0-9.716-3.036-14.574-9.109-14.574c-5.161,0-10.073,2.987-14.726,8.957l-4.099-8.502c2.326-2.833,5.287-5.212,8.881-7.136
		c3.591-1.921,7.261-2.884,11.006-2.884c13.156,0,19.737,8.907,19.737,26.72v57.539h-7.135l-2.43-9.868
		c-1.114,4.049-2.96,7.086-5.541,9.109c-2.581,2.024-5.492,3.036-8.729,3.036c-5.465,0-9.617-1.746-12.449-5.238
		c-2.834-3.492-4.251-10.044-4.251-19.66v-2.733C546.19,145.377,547.607,138.823,550.441,135.331z M565.319,173.058
		c2.935,0,5.238-1.063,6.908-3.188c1.67-2.125,2.605-5.97,2.809-11.538v-4.099c-0.204-5.97-1.138-10.119-2.809-12.449
		c-1.67-2.327-3.973-3.492-6.908-3.492c-5.062,0-7.59,4.808-7.59,14.422v5.921C557.729,168.252,560.257,173.058,565.319,173.058z"/>
	<path class="st0" d="M616.483,180.345h-11.69V98.364h7.135l3.036,13.056c2.125-10.221,7.439-15.333,15.941-15.333
		c5.261,0,9.284,2.33,12.07,6.984c2.782,4.656,4.175,13.158,4.175,25.505v51.77h-11.69v-55.869c0-12.651-2.482-18.978-7.439-18.978
		c-7.492,0-11.336,10.832-11.538,32.489V180.345z"/>
	<path class="st0" d="M679.637,182.622c-5.264,0-9.337-2.301-12.222-6.908c-2.885-4.604-4.327-12.928-4.327-24.974v-22.773
		c0-12.043,1.442-20.368,4.327-24.974c2.884-4.605,6.958-6.908,12.222-6.908c7.287,0,12.245,4.353,14.878,13.056V68h11.082v112.345
		h-7.135l-3.644-15.789C692.793,176.602,687.734,182.622,679.637,182.622z M692.39,160.988c1.113-5.211,1.67-12.423,1.67-21.634
		c0-9.209-0.584-16.42-1.746-21.634c-1.165-5.212-2.531-8.552-4.099-10.02c-1.57-1.466-3.62-2.201-6.149-2.201
		c-5.161,0-7.743,6.277-7.743,18.826v30.06c0,6.984,0.707,11.868,2.126,14.65c1.416,2.785,3.39,4.175,5.921,4.175
		c2.529,0,4.555-0.733,6.073-2.201C689.961,169.543,691.274,166.202,692.39,160.988z"/>
	<path class="st0" d="M751.751,161.975c0-5.769-2.125-10.172-6.376-13.208l-10.475-7.439c-7.796-5.162-11.69-12.802-11.69-22.924
		c0-8.198,1.745-13.967,5.237-17.307c3.492-3.34,8.222-5.01,14.195-5.01c5.972,0,10.627,1.571,13.968,4.707
		c3.34,3.138,5.364,8.858,6.073,17.155l-10.476,2.126c-0.508-9.816-3.62-14.726-9.337-14.726c-5.719,0-8.577,3.999-8.577,11.993
		c0,6.479,2.126,11.287,6.377,14.423l10.02,6.983c2.529,1.722,4.528,3.264,5.997,4.631c1.465,1.366,2.884,3.644,4.251,6.832
		c1.366,3.188,2.05,6.907,2.05,11.159c0,7.795-1.822,13.284-5.466,16.472c-3.643,3.188-8.578,4.783-14.802,4.783
		c-6.224,0-11.109-1.848-14.65-5.542c-3.544-3.693-5.719-10.195-6.528-19.508l10.778-1.973c0.404,6.58,1.442,11.185,3.112,13.815
		c1.67,2.633,3.971,3.947,6.908,3.947C748.613,173.361,751.751,169.566,751.751,161.975z"/>
	<path class="st0" d="M810.957,176.929c-3.544,3.795-8.376,5.693-14.498,5.693c-6.126,0-10.958-2.152-14.499-6.452
		c-3.544-4.301-5.313-11.766-5.313-22.393v-25.809c0-12.043,1.769-20.368,5.313-24.974c3.542-4.605,8.374-6.908,14.499-6.908
		c6.122,0,10.904,1.67,14.346,5.01c3.439,3.34,5.515,9.363,6.225,18.067l-10.627,2.884c-0.406-11.03-3.492-16.548-9.261-16.548
		c-2.936,0-5.161,1.317-6.679,3.947c-1.518,2.633-2.278,8.099-2.278,16.396v28.997c0,7.085,0.783,11.894,2.354,14.422
		c1.568,2.531,3.819,3.796,6.755,3.796c2.934,0,5.212-1.239,6.831-3.72c1.618-2.479,2.783-7.261,3.492-14.347l9.868,1.518
		C816.674,166.328,814.499,173.134,810.957,176.929z"/>
	<path class="st0" d="M832.818,135.331c2.833-3.492,6.882-5.238,12.146-5.238c5.261,0,9.413,2.026,12.45,6.073v-15.941
		c0-9.716-3.036-14.574-9.109-14.574c-5.161,0-10.073,2.987-14.726,8.957l-4.099-8.502c2.326-2.833,5.287-5.212,8.881-7.136
		c3.591-1.921,7.261-2.884,11.006-2.884c13.156,0,19.737,8.907,19.737,26.72v57.539h-7.135l-2.43-9.868
		c-1.114,4.049-2.96,7.086-5.541,9.109c-2.581,2.024-5.492,3.036-8.729,3.036c-5.465,0-9.617-1.746-12.45-5.238
		c-2.834-3.492-4.251-10.044-4.251-19.66v-2.733C828.567,145.377,829.984,138.823,832.818,135.331z M847.696,173.058
		c2.935,0,5.238-1.063,6.908-3.188c1.67-2.125,2.605-5.97,2.808-11.538v-4.099c-0.204-5.97-1.138-10.119-2.808-12.449
		c-1.67-2.327-3.973-3.492-6.908-3.492c-5.062,0-7.59,4.808-7.59,14.422v5.921C840.106,168.252,842.634,173.058,847.696,173.058z"/>
	<path class="st0" d="M887.169,98.364h7.135l3.036,13.208c2.326-10.324,7.489-15.485,15.485-15.485
		c5.364,0,9.463,2.277,12.298,6.832c2.832,4.555,4.251,12.904,4.251,25.05v22.773c0,12.146-1.419,20.495-4.251,25.05
		c-2.835,4.555-6.934,6.832-12.298,6.832c-7.39,0-12.247-4.756-14.574-14.271v39.321h-11.082V98.364z M898.252,139.355
		c0,9.109,0.581,16.296,1.746,21.558c1.163,5.264,2.505,8.63,4.023,10.096c1.518,1.468,3.542,2.201,6.073,2.201
		c5.465,0,8.198-6.274,8.198-18.826v-30.06c0-12.549-2.682-18.826-8.046-18.826c-2.33,0-4.277,0.71-5.845,2.125
		c-1.571,1.419-2.96,4.555-4.175,9.413c-1.214,4.858-1.874,11.59-1.974,20.191V139.355z"/>
	<path class="st0" d="M945.922,82.271V68h12.6v14.271H945.922z M946.377,180.345V98.364h11.69v81.982H946.377z"/>
	<path class="st0" d="M988.885,180.345h-11.69V98.364h7.135l3.036,13.056c2.125-10.221,7.439-15.333,15.941-15.333
		c5.261,0,9.284,2.33,12.07,6.984c2.782,4.656,4.175,13.158,4.175,25.505v51.77h-11.69v-55.869c0-12.651-2.482-18.978-7.439-18.978
		c-7.492,0-11.336,10.832-11.538,32.489V180.345z"/>
	<path class="st0" d="M1084.073,96.086v11.994h-8.957c1.72,4.353,2.581,10.122,2.581,17.307v1.367
		c0,11.234-1.745,18.927-5.237,23.076c-3.492,4.152-8.881,6.225-16.169,6.225c-2.835,0-5.416-0.304-7.743-0.911
		c-2.227,1.62-3.34,4.151-3.34,7.591c0,6.073,2.783,9.109,8.351,9.109h9.412c12.549,0,18.826,6.352,18.826,19.053
		s-6.278,19.053-18.826,19.053h-13.36c-12.448,0-18.673-6.376-18.673-19.129c0-8.706,2.934-14.423,8.805-17.156
		c-2.429-1.921-3.643-5.413-3.643-10.476c0-5.059,2.174-8.704,6.528-10.931c-4.96-4.149-7.439-12.65-7.439-25.505v-1.367
		c0-11.234,1.72-18.925,5.162-23.076c3.439-4.149,8.475-6.225,15.105-6.225c6.629,0,11.665,1.571,15.106,4.707l11.842-4.707
		H1084.073z M1063.881,181.256h-15.182c-4.555,0-6.831,3.162-6.831,9.489c0,6.324,2.277,9.489,6.831,9.489h15.182
		c4.555,0,6.831-3.165,6.831-9.489C1070.713,184.418,1068.436,181.256,1063.881,181.256z M1066.158,129.486v-6.832
		c0-6.881-0.834-11.588-2.505-14.119c-1.67-2.528-4.049-3.796-7.135-3.796c-3.089,0-5.492,1.267-7.211,3.796
		c-1.723,2.531-2.582,7.238-2.582,14.119v6.832c0,6.884,0.859,11.59,2.582,14.119c1.72,2.531,4.122,3.796,7.211,3.796
		c3.086,0,5.465-1.264,7.135-3.796C1065.324,141.077,1066.158,136.37,1066.158,129.486z"/>
	<path class="st0" d="M1110.487,155.447v-4.858c0-7.185,1.29-12.65,3.872-16.396c2.581-3.743,6.3-6.528,11.158-8.35
		c-4.859-8.704-7.287-18.218-7.287-28.542c0-17.004,7.034-25.505,21.103-25.505c6.274,0,11.182,2.049,14.726,6.149
		c3.542,4.099,5.769,11.31,6.679,21.634l-10.778,1.67c-0.508-7.591-1.571-12.753-3.188-15.485c-1.621-2.733-4.024-4.099-7.211-4.099
		c-3.188,0-5.618,1.138-7.287,3.416c-1.67,2.277-2.506,6.808-2.506,13.588c0,6.782,1.974,13.868,5.921,21.254l14.12,26.112
		c1.011-6.578,1.72-13.611,2.125-21.102h10.02c-1.114,14.878-2.784,26.215-5.009,34.007l11.69,21.406h-13.056l-4.403-8.046
		c-4.456,6.884-11.135,10.324-20.041,10.324c-6.376,0-11.412-1.973-15.105-5.921
		C1112.333,172.754,1110.487,165.671,1110.487,155.447z M1132.956,172.754c5.769,0,10.02-3.39,12.752-10.172l-15.333-27.934
		c-5.465,3.036-8.199,8.35-8.199,15.941v5.01c0,6.58,0.961,11.082,2.885,13.511C1126.983,171.54,1129.616,172.754,1132.956,172.754z
		"/>
	<path class="st0" d="M514.159,337.23c1.921,3.088,4.654,4.63,8.198,4.63c3.542,0,6.198-1.34,7.971-4.023
		c1.769-2.681,2.96-7.767,3.568-15.258l10.626,1.367c-0.911,10.324-3.214,17.535-6.907,21.634
		c-3.696,4.099-8.984,6.149-15.865,6.149c-6.884,0-12.349-2.479-16.396-7.439c-4.049-4.958-6.073-14.067-6.073-27.327v-41.294
		c0-13.258,2.024-22.367,6.073-27.327c4.047-4.958,9.488-7.439,16.32-7.439c6.831,0,12.043,1.772,15.637,5.314
		c3.591,3.544,5.793,9.868,6.605,18.977l-11.083,2.733c-0.607-6.476-1.746-10.954-3.415-13.435c-1.67-2.479-4.152-3.72-7.439-3.72
		c-3.291,0-5.898,1.594-7.819,4.782c-1.924,3.188-2.885,9.033-2.885,17.535v47.064C511.275,328.45,512.235,334.143,514.159,337.23z"
		/>
	<path class="st0" d="M598.721,297.074v22.773c0,12.046-1.847,20.37-5.541,24.974c-3.696,4.607-8.957,6.908-15.789,6.908
		c-6.832,0-12.096-2.301-15.79-6.908c-3.696-4.604-5.541-12.928-5.541-24.974v-22.773c0-12.043,1.845-20.368,5.541-24.974
		c3.694-4.605,8.957-6.908,15.79-6.908c6.831,0,12.093,2.303,15.789,6.908C596.874,276.706,598.721,285.03,598.721,297.074z
		 M587.031,321.972v-27.023c0-13.561-3.188-20.344-9.565-20.344c-6.58,0-9.868,6.782-9.868,20.344v27.023
		c0,13.564,3.287,20.344,9.868,20.344C583.843,342.315,587.031,335.536,587.031,321.972z"/>
	<path class="st0" d="M627.414,349.451h-11.69v-81.982h7.135l3.036,13.056c2.125-10.221,7.439-15.333,15.941-15.333
		c5.261,0,9.284,2.33,12.07,6.984c2.782,4.656,4.175,13.158,4.175,25.505v51.77h-11.69v-55.869c0-12.651-2.482-18.978-7.439-18.978
		c-7.492,0-11.336,10.832-11.538,32.489V349.451z"/>
	<path class="st0" d="M703.17,331.081c0-5.769-2.125-10.172-6.376-13.208l-10.476-7.439c-7.796-5.162-11.69-12.802-11.69-22.924
		c0-8.198,1.745-13.967,5.237-17.307c3.492-3.34,8.222-5.01,14.195-5.01c5.971,0,10.627,1.571,13.968,4.707
		c3.34,3.138,5.364,8.858,6.073,17.155l-10.476,2.126c-0.508-9.816-3.62-14.726-9.337-14.726c-5.719,0-8.577,3.999-8.577,11.993
		c0,6.479,2.126,11.287,6.377,14.423l10.02,6.983c2.529,1.722,4.528,3.264,5.997,4.631c1.465,1.366,2.885,3.644,4.251,6.832
		c1.366,3.188,2.05,6.907,2.05,11.159c0,7.795-1.822,13.284-5.466,16.472c-3.643,3.188-8.577,4.783-14.802,4.783
		c-6.224,0-11.109-1.848-14.65-5.542c-3.544-3.693-5.719-10.195-6.527-19.508l10.778-1.973c0.404,6.58,1.442,11.185,3.112,13.815
		c1.67,2.633,3.971,3.947,6.908,3.947C700.032,342.467,703.17,338.672,703.17,331.081z"/>
	<path class="st0" d="M723.663,276.882v-9.413h8.046l4.1-20.192h6.983v20.192h10.779v9.413h-10.779v57.084
		c0,5.366,1.466,8.046,4.403,8.046c1.921,0,3.947-0.809,6.073-2.429l2.277,8.957c-3.442,2.125-6.983,3.188-10.626,3.188
		c-9.109,0-13.664-6.73-13.664-20.192v-54.654H723.663z"/>
	<path class="st0" d="M791.83,265.192l3.036,0.152l-0.91,12.904c-1.419-0.707-2.785-1.062-4.099-1.062
		c-7.693,0-11.591,7.996-11.69,23.987v48.278h-11.69v-81.982h7.135l3.339,13.967C778.975,270.607,783.936,265.192,791.83,265.192z"
		/>
	<path class="st0" d="M834.185,267.469h11.538v81.982h-7.135l-2.429-10.02c-2.33,8.198-7.238,12.297-14.726,12.297
		c-5.568,0-9.769-1.722-12.601-5.162c-2.834-3.44-4.251-10.02-4.251-19.736v-59.361h11.538v60.271c0,5.568,0.684,9.363,2.05,11.387
		c1.366,2.026,3.416,3.036,6.149,3.036c6.172,0,9.463-4.908,9.868-14.726V267.469z"/>
	<path class="st0" d="M897.189,346.035c-3.544,3.795-8.376,5.693-14.498,5.693c-6.126,0-10.958-2.152-14.499-6.452
		c-3.544-4.301-5.313-11.766-5.313-22.393v-25.809c0-12.043,1.769-20.368,5.313-24.974c3.542-4.605,8.374-6.908,14.499-6.908
		c6.122,0,10.904,1.67,14.346,5.01c3.439,3.34,5.515,9.363,6.225,18.067l-10.627,2.884c-0.406-11.03-3.492-16.548-9.261-16.548
		c-2.936,0-5.161,1.317-6.679,3.947c-1.518,2.633-2.278,8.099-2.278,16.396v28.997c0,7.085,0.783,11.894,2.354,14.422
		c1.568,2.531,3.819,3.796,6.755,3.796c2.934,0,5.212-1.239,6.831-3.72c1.618-2.479,2.783-7.261,3.492-14.347l9.868,1.518
		C902.905,335.433,900.731,342.24,897.189,346.035z"/>
	<path class="st0" d="M911.004,276.882v-9.413h8.046l4.1-20.192h6.983v20.192h10.779v9.413h-10.779v57.084
		c0,5.366,1.466,8.046,4.403,8.046c1.921,0,3.947-0.809,6.073-2.429l2.277,8.957c-3.442,2.125-6.983,3.188-10.626,3.188
		c-9.109,0-13.664-6.73-13.664-20.192v-54.654H911.004z"/>
	<path class="st0" d="M953.361,251.377v-14.271h12.6v14.271H953.361z M953.816,349.451v-81.982h11.69v81.982H953.816z"/>
	<path class="st0" d="M1025.168,297.074v22.773c0,12.046-1.847,20.37-5.541,24.974c-3.696,4.607-8.957,6.908-15.789,6.908
		c-6.832,0-12.096-2.301-15.79-6.908c-3.696-4.604-5.541-12.928-5.541-24.974v-22.773c0-12.043,1.845-20.368,5.541-24.974
		c3.694-4.605,8.957-6.908,15.79-6.908c6.831,0,12.093,2.303,15.789,6.908C1023.32,276.706,1025.168,285.03,1025.168,297.074z
		 M1013.478,321.972v-27.023c0-13.561-3.188-20.344-9.565-20.344c-6.58,0-9.868,6.782-9.868,20.344v27.023
		c0,13.564,3.287,20.344,9.868,20.344C1010.289,342.315,1013.478,335.536,1013.478,321.972z"/>
	<path class="st0" d="M1053.862,349.451h-11.69v-81.982h7.135l3.036,13.056c2.125-10.221,7.439-15.333,15.941-15.333
		c5.261,0,9.284,2.33,12.07,6.984c2.782,4.656,4.175,13.158,4.175,25.505v51.77h-11.69v-55.869c0-12.651-2.482-18.978-7.439-18.978
		c-7.492,0-11.336,10.832-11.538,32.489V349.451z"/>
	<path class="st0" d="M1124.456,349.451V243.178h12.145v96.556h23.532v9.716H1124.456z"/>
	<path class="st0" d="M1171.973,349.451V243.178h12.145v96.556h23.532v9.716H1171.973z"/>
	<path class="st0" d="M1232.243,337.23c1.921,3.088,4.654,4.63,8.198,4.63c3.542,0,6.198-1.34,7.971-4.023
		c1.769-2.681,2.96-7.767,3.568-15.258l10.626,1.367c-0.911,10.324-3.214,17.535-6.907,21.634
		c-3.696,4.099-8.984,6.149-15.865,6.149c-6.884,0-12.349-2.479-16.396-7.439c-4.049-4.958-6.073-14.067-6.073-27.327v-41.294
		c0-13.258,2.024-22.367,6.073-27.327c4.047-4.958,9.488-7.439,16.32-7.439c6.831,0,12.043,1.772,15.637,5.314
		c3.591,3.544,5.793,9.868,6.605,18.977l-11.083,2.733c-0.607-6.476-1.746-10.954-3.415-13.435c-1.67-2.479-4.152-3.72-7.439-3.72
		c-3.291,0-5.898,1.594-7.819,4.782c-1.924,3.188-2.885,9.033-2.885,17.535v47.064
		C1229.358,328.45,1230.318,334.143,1232.243,337.23z"/>
</g>
<polygon class="st1" points="71.333,237.655 56.303,221.219 72,206 72,164.988 15.291,221.219 71.333,278.667 "/>
<g>
	<path class="st1" d="M365.855,153.283c16.542,10.415,25.286,26.273,25.286,45.861c0,2.305-0.139,4.553-0.385,6.756l14.182,18.182
		l-19.94,20.575c1.452,2.136,2.777,4.367,3.958,6.7c3.903,7.719,6.031,15.775,6.378,23.977l50.616-51.252l-70.937-70.937h-9.39
		C365.698,153.192,365.779,153.235,365.855,153.283z"/>
	<path class="st1" d="M317.711,343.22h-31.912l-53.747,53.747l-92.84-92.84v23.093v16l0.122,1.447l92.718,93.313l95.127-95.127
		C324.119,343.093,320.966,343.22,317.711,343.22z"/>
</g>
</svg>
